<svg width="410" height="106" viewBox="0 0 410 106" fill="none" xmlns="http://www.w3.org/2000/svg">
<path d="M334 89.4476V13.1835H358.683V89.4476H334ZM365.685 52.2961L384.416 13.1835H408.749L390.193 52.2961L409.45 89.4476H385.292L365.685 52.2961Z" fill="white"/>
<path d="M247.221 28.2184V13.1835H323.02V28.2184H297.462V89.4476H272.779V28.2184H247.221Z" fill="white"/>
<path d="M212.561 89.4476V13.1835H237.244V89.4476H212.561Z" fill="white"/>
<path d="M118.379 89.4476L140.961 26.0394H143.587L154.091 56.5451L142.537 89.4476H118.379ZM155.666 80.1869L160.918 65.152H167.22L148.664 13.1835H172.997L201.881 89.4476H177.373L173.872 80.1869H155.666Z" fill="white"/>
<path d="M118.379 89.4476L140.961 26.0394H143.587L154.091 56.5451L142.537 89.4476H118.379Z" fill="#FF8000"/>
<path d="M85.417 78.6913C85.5196 78.7527 85.6199 78.8176 85.7178 78.8856L93.0977 83.1473L85.6328 87.5487C85.5528 87.6021 85.4717 87.654 85.3887 87.703L84.4902 88.2235L83.9521 88.5389L83.9541 88.5331L61.9043 101.264C61.5645 101.461 61.2031 101.616 60.8311 101.731L54.2734 105.229L54.1348 97.4012C54.1089 97.1884 54.0941 96.9734 54.0947 96.7577L54.0996 95.4559L54.0908 95.0897L54.0996 95.0946L54.1279 86.5175L43.1201 74.5741C43.1023 74.7501 43.0906 74.9279 43.0898 75.1063L43.0176 95.8212L43.0273 95.8163L43.0146 96.6796L43.0137 96.7274C43.0136 96.7394 43.0138 96.7525 43.0137 96.7645L42.8682 105.72L33.4785 100.204L33.4844 100.202L11.8193 87.4501C11.6796 87.3665 11.5448 87.2733 11.4141 87.1776L4.05273 82.9276L11.3047 78.8065C11.4773 78.6729 11.6587 78.5482 11.8477 78.4364L24.7461 70.9891H72.3086L85.417 78.6913Z" fill="white"/>
<path d="M59.167 4.91248C59.2664 4.96056 59.3645 5.0123 59.4609 5.06677L60.46 5.64392L60.8994 5.89197L60.8936 5.89392L82.9443 18.6244C83.2849 18.8196 83.5998 19.0539 83.8857 19.3177L90.1943 23.2494L83.5078 27.2699C83.3301 27.4049 83.1431 27.5292 82.9482 27.641L81.7266 28.3402L81.5039 28.475V28.4681L74.0654 32.7299L69.2256 48.2357C69.3864 48.1633 69.5448 48.0837 69.6992 47.9955L87.6729 37.7025L87.667 37.6986L88.1729 37.4164L88.4629 37.2513C88.5218 37.2176 88.5825 37.187 88.6426 37.1556L96.3242 32.8861L96.2432 43.7738L96.2373 43.7689L96.0254 68.9066C96.0229 69.067 96.0092 69.2264 95.9922 69.3851V77.8959L88.7744 73.6635C88.5803 73.583 88.3892 73.4928 88.2051 73.389L68.1738 61.8236L51.4629 32.8793L51.6416 9.54919C51.6433 9.43569 51.6482 9.3221 51.6572 9.20935V0.667358L59.167 4.91248Z" fill="#FF8000"/>
<path d="M45.4727 9.18347C45.483 9.30486 45.4893 9.4274 45.4912 9.54968L45.6465 29.9647L26.3994 63.3016L8.92773 73.3895C8.74103 73.4947 8.54752 73.5876 8.35059 73.6688L1.13867 77.8964V69.369C1.12275 69.2159 1.10981 69.0617 1.10742 68.9071L0.895508 43.7645L0.882812 43.7743L0.800781 32.8866L8.3584 37.0868C8.46376 37.1381 8.56787 37.1933 8.66992 37.2518L9.2207 37.5653L9.45801 37.6991L9.45508 37.702L27.4336 47.996C27.588 48.0842 27.7474 48.1638 27.9082 48.2362L23.0664 32.7303L15.626 28.4677V28.4755L15.3633 28.3163L14.1846 27.6415C13.9958 27.5332 13.8143 27.4122 13.6416 27.2821L6.93555 23.2499L13.2559 19.3104C13.5394 19.05 13.8516 18.818 14.1885 18.6249L36.2363 5.89441L36.2295 5.89246L36.7773 5.58191L37.6719 5.06628C37.7545 5.01965 37.8391 4.9764 37.9238 4.93445L45.4727 0.66687V9.18347Z" fill="white"/>
<path d="M93.1233 83.1603L72.3097 70.9735H63.8008L88.0074 86.1467L93.1233 83.1603Z" fill="#FF8000"/>
</svg>
